<svg xmlns="http://www.w3.org/2000/svg" viewBox="0 0 64 64">
  <defs>
    <linearGradient id="bg" x1="8" y1="8" x2="56" y2="56" gradientUnits="userSpaceOnUse">
      <stop offset="0" stop-color="#2563eb" />
      <stop offset="1" stop-color="#06b6d4" />
    </linearGradient>
  </defs>
  <rect x="6" y="6" width="52" height="52" rx="14" fill="#0b1220" />
  <rect x="8" y="8" width="48" height="48" rx="12" fill="url(#bg)" />
  <path
    d="M22 25.5C22 21.9 24.8 19 28.4 19H40.5V24H29.1C27.3 24 26 25.2 26 27V27.1C26 28.9 27.3 30.1 29.1 30.1H34.6C39 30.1 42.4 33.5 42.4 37.9V38.1C42.4 42.5 39 46 34.6 46H22V41H33.9C36.1 41 37.4 39.8 37.4 38V37.9C37.4 36.1 36.1 35 33.9 35H28.7C24.7 35 22 32.2 22 28.2V25.5Z"
    fill="#ffffff"
  />
</svg>
