<svg width="520" height="260" viewBox="0 0 520 260" fill="none" xmlns="http://www.w3.org/2000/svg">
  <defs>
    <radialGradient id="g1" cx="0" cy="0" r="1" gradientUnits="userSpaceOnUse" gradientTransform="translate(350 84) rotate(90) scale(96 140)">
      <stop stop-color="#38BDF8" stop-opacity="0.55"/>
      <stop offset="1" stop-color="#38BDF8" stop-opacity="0"/>
    </radialGradient>
    <linearGradient id="cardBg" x1="202" y1="58" x2="462" y2="220" gradientUnits="userSpaceOnUse">
      <stop stop-color="#1D4ED8"/>
      <stop offset="1" stop-color="#0E7490"/>
    </linearGradient>
    <linearGradient id="headset" x1="410" y1="122" x2="488" y2="196" gradientUnits="userSpaceOnUse">
      <stop stop-color="#6366F1"/>
      <stop offset="1" stop-color="#A855F7"/>
    </linearGradient>
  </defs>

  <ellipse cx="346" cy="90" rx="155" ry="86" fill="url(#g1)"/>

  <path d="M220 178H454L430 210H196L220 178Z" fill="#0F172A" fill-opacity="0.45"/>
  <rect x="222" y="64" width="204" height="122" rx="14" fill="url(#cardBg)" stroke="#7DD3FC" stroke-opacity="0.45"/>
  <rect x="236" y="80" width="176" height="84" rx="8" fill="#DBEAFE" fill-opacity="0.86"/>
  <rect x="246" y="90" width="98" height="8" rx="4" fill="#1E3A8A" fill-opacity="0.65"/>
  <rect x="246" y="104" width="140" height="6" rx="3" fill="#1E3A8A" fill-opacity="0.45"/>
  <rect x="246" y="115" width="124" height="6" rx="3" fill="#1E3A8A" fill-opacity="0.38"/>

  <rect x="180" y="112" width="66" height="56" rx="10" fill="#0F172A" fill-opacity="0.45" stroke="#67E8F9" stroke-opacity="0.5"/>
  <rect x="188" y="122" width="50" height="6" rx="3" fill="#A5F3FC" fill-opacity="0.65"/>
  <rect x="188" y="133" width="36" height="6" rx="3" fill="#A5F3FC" fill-opacity="0.45"/>

  <circle cx="442" cy="162" r="33" fill="url(#headset)"/>
  <circle cx="442" cy="162" r="16" fill="#1E1B4B"/>
  <path d="M402 160C402 136 420 118 442 118C464 118 482 136 482 160" stroke="#A78BFA" stroke-width="10" stroke-linecap="round"/>
  <rect x="468" y="154" width="14" height="30" rx="7" fill="#7C3AED"/>
</svg>
